<?xml version="1.0" encoding="UTF-8"?>
<svg version="1.1" xmlns="http://www.w3.org/2000/svg" width="213" height="213">
<path d="M0 0 C27.72 0 55.44 0 84 0 C83.67 0.66 83.34 1.32 83 2 C80.85583206 2.58905713 78.68185235 3.07108885 76.5 3.5 C72.51156193 4.2944776 68.55955006 5.09926127 64.625 6.125 C61.06912797 6.98054816 57.67621091 7.04565077 54.02685547 7.08569336 C47.36130848 7.09850009 47.36130848 7.09850009 41.4140625 9.83984375 C39.70974555 11.81893833 38.28309001 13.72872373 37 16 C42.71056721 15.97569971 46.97517283 15.34089719 51.8125 12.1875 C64.6531421 3.96394063 80.34145504 2.83774509 95.14453125 5.6953125 C102.36170371 7.55629522 108.15194565 10.41209125 114 15 C115.33277587 16.00074286 116.66595551 17.00094891 118 18 C117.14590173 22.50419983 114.52252531 25.03017333 111.4375 28.25 C110.65729492 29.08144531 110.65729492 29.08144531 109.86132812 29.9296875 C108.58069015 31.29256828 107.2911951 32.64711683 106 34 C105.03578125 33.43410156 104.0715625 32.86820313 103.078125 32.28515625 C101.80223301 31.54401311 100.52618301 30.80314193 99.25 30.0625 C98.61578125 29.68931641 97.9815625 29.31613281 97.328125 28.93164062 C89.11932316 24.18592706 79.5439392 23.43021112 70.296875 25.6484375 C61.57662084 29.2158142 55.8811712 35.14368417 51.91015625 43.5703125 C48.12367704 53.67842438 48.58491351 66.93737108 52.87890625 76.7734375 C56.60174134 84.16722148 61.2775188 88.62505721 68.9765625 91.8203125 C77.87923439 94.4215047 87.54482648 93.69913842 96 90 C99.13388343 88.16723782 102.09147822 86.17085322 105 84 C109.03721561 85.56583596 111.47070582 88.44173865 114.25 91.625 C114.70890625 92.140625 115.1678125 92.65625 115.640625 93.1875 C116.76592296 94.4534602 117.88372177 95.72607942 119 97 C112.11845909 106.26421567 100.27026268 111.2957948 89 113 C72.40868385 114.18583055 57.17590079 111.82818552 43.75 101.22265625 C33.58421479 91.80775291 28.73358443 78.4127079 27.25 64.875 C25.80605826 52.94204751 21.56127935 41.43618614 18 30 C18.99 29.505 18.99 29.505 20 29 C21.32 32.63 22.64 36.26 24 40 C24.33 40 24.66 40 25 40 C25.27615058 38.40012764 25.52007625 36.794667 25.75 35.1875 C25.88921875 34.29417969 26.0284375 33.40085938 26.171875 32.48046875 C26.11515625 31.66191406 26.0584375 30.84335938 26 30 C24.07777964 28.27682885 24.07777964 28.27682885 22 27 C22 26.34 22 25.68 22 25 C24 26 26 27 28 28 C28.67119549 26.5437455 29.33681807 25.08492133 30 23.625 C30.37125 22.81289063 30.7425 22.00078125 31.125 21.1640625 C32.12495013 19.08001567 32.12495013 19.08001567 32 17 C31.12859375 16.731875 30.2571875 16.46375 29.359375 16.1875 C21.50194356 13.60237104 15.28419013 10.61319375 8.5234375 5.76953125 C6.39139699 4.27446259 4.36054352 3.08053048 2 2 C1.88820193 4.3786419 1.88820193 4.3786419 3 7 C5.41343769 8.7714586 8.08308742 9.91670362 10.8125 11.125 C12.25818053 11.79065557 13.70224522 12.45983365 15.14453125 13.1328125 C15.81822754 13.44637695 16.49192383 13.75994141 17.18603516 14.08300781 C19.32473159 15.16415772 21.17088778 16.45413613 23 18 C21.55049595 22.35647645 19.32252888 25.31757289 16.375 28.8125 C15.55773437 29.78832031 14.74046875 30.76414062 13.8984375 31.76953125 C13.27195312 32.50558594 12.64546875 33.24164063 12 34 C10.89140625 33.43410156 9.7828125 32.86820313 8.640625 32.28515625 C7.17719097 31.54405825 5.71364333 30.80318456 4.25 30.0625 C3.52039063 29.68931641 2.79078125 29.31613281 2.0390625 28.93164062 C1.33007812 28.57392578 0.62109375 28.21621094 -0.109375 27.84765625 C-0.75874023 27.51773682 -1.40810547 27.18781738 -2.07714844 26.84790039 C-6.55345807 24.87402744 -10.79735862 24.87738569 -15.625 24.9375 C-16.305625 24.94201172 -16.98625 24.94652344 -17.6875 24.95117188 C-19.45836577 24.96342095 -21.2291902 24.98133807 -23 25 C-23.66 25 -24.32 25 -25 25 C-27.77723726 26.62569986 -30.00857309 28.46788998 -32 31 C-32.79861371 34.10370327 -32.32296742 36.12213232 -31 39 C-25.26746332 44.39163004 -17.11118257 45.96502843 -9.75 47.9375 C14.05824066 54.32280083 14.05824066 54.32280083 21 63 C21.825 63.886875 22.65 64.77375 23.5 65.6875 C25.51279123 70.13241398 24.46357084 72.459026 22.89453125 76.92578125 C22 79 22 79 21 80 C16.30198463 80.89604532 11.77576375 81.36319656 7 81 C4.89412363 79.50564601 3.92396185 78.09053822 2.5637207 75.91650391 C-3.01628679 69.07761884 -17.23468984 67.4683531 -25.3671875 65.17578125 C-33.3147358 62.82891699 -42.21097384 60.18353924 -47 53 C-46.34 52.34 -45.68 51.68 -45 51 C-45.32041397 48.39719432 -45.32041397 48.39719432 -46 46 C-46.99 46 -47.98 46 -49 46 C-49.33 46.99 -49.66 47.98 -50 49 C-53.0797348 45.9202652 -53.44639255 42.23509702 -54 38 C-53.73268875 34.63187826 -53.50838329 32.01676658 -52 29 C-50.68 29 -49.36 29 -48 29 C-47.01 31.31 -46.02 33.62 -45 36 C-43.35 34.02 -41.7 32.04 -40 30 C-40.350625 29.29875 -40.70125 28.5975 -41.0625 27.875 C-42.39963457 23.77445398 -41.57839772 20.84035638 -40.3125 16.8125 C-38.39440546 14.16370278 -35.94778404 13.28164523 -33 12 C-33.66 11.01 -34.32 10.02 -35 9 C-28.79081025 5.75428718 -22.94170563 5.33055741 -16 5 C-15.505 6.485 -15.505 6.485 -15 8 C-13.02463255 7.65213292 -13.02463255 7.65213292 -11 7 C-10.67 6.34 -10.34 5.68 -10 5 C-7.03 5.33 -4.06 5.66 -1 6 C-0.67 4.02 -0.34 2.04 0 0 Z M17 1 C18.83883881 3.28728734 18.83883881 3.28728734 21.625 3.125 C22.40875 3.08375 23.1925 3.0425 24 3 C23.67 2.34 23.34 1.68 23 1 C21.02 1 19.04 1 17 1 Z M8 2 C10.80804268 4.96404505 13.18315774 7.44499019 17 9 C18.32 7.35 19.64 5.7 21 4 C19.58461283 3.66127487 18.16762037 3.32925376 16.75 3 C15.96109375 2.814375 15.1721875 2.62875 14.359375 2.4375 C11.74443998 1.87845172 11.74443998 1.87845172 8 2 Z M26 2 C25.67 2.66 25.34 3.32 25 4 C29.44919523 4.84616596 33.72220798 5.1921984 38.25 5.25 C39.47203125 5.27578125 40.6940625 5.3015625 41.953125 5.328125 C43.46132812 5.16570313 43.46132812 5.16570313 45 5 C45.66 4.01 46.32 3.02 47 2 C39.95416598 0.9431249 33.04583528 0.68462491 26 2 Z M59.625 1.1875 C58.76132813 1.20619141 57.89765625 1.22488281 57.0078125 1.24414062 C51.79992083 1.43699425 51.79992083 1.43699425 47.3984375 4.05078125 C46.93695313 4.69402344 46.47546875 5.33726563 46 6 C54.80426458 5.68671942 62.74720228 5.38954192 71 2 C67.4780816 0.2390408 63.4874526 1.01894623 59.625 1.1875 Z M20.1875 6.5 C19.795625 6.995 19.40375 7.49 19 8 C19.66989886 11.17239106 19.66989886 11.17239106 22.328125 12.203125 C23.77445312 12.72132812 23.77445312 12.72132812 25.25 13.25 C26.20390625 13.60578125 27.1578125 13.9615625 28.140625 14.328125 C31.26581496 15.06245925 32.97778994 15.03968103 36 14 C38.07035299 12.2005821 39.36554261 10.24154157 41 8 C41 7.67 41 7.34 41 7 C38.77149723 6.66225668 36.54216533 6.3299813 34.3125 6 C33.07113281 5.814375 31.82976562 5.62875 30.55078125 5.4375 C24.99892746 4.44221545 24.99892746 4.44221545 20.1875 6.5 Z M-28 13 C-27.01 13.495 -27.01 13.495 -26 14 C-26 15.65 -26 17.3 -26 19 C-25.67 19 -25.34 19 -25 19 C-25 17.02 -25 15.04 -25 13 C-25.99 13 -26.98 13 -28 13 Z M35 17 C34.10584945 18.74029302 33.23524822 20.4927015 32.375 22.25 C31.88773437 23.22453125 31.40046875 24.1990625 30.8984375 25.203125 C29.70592543 27.93749852 29.70592543 27.93749852 30.8515625 30.359375 C31.23054688 30.90078125 31.60953125 31.4421875 32 32 C35.60346395 30.79884535 36.02642381 29.82774754 38 26.6875 C39.89861023 23.69620004 41.83971434 20.80965724 44 18 C41.03 17.67 38.06 17.34 35 17 Z M29 32 C27.54815522 36.53701494 26.76490804 40.18061476 27 45 C27.99 45.495 27.99 45.495 29 46 C29.67057887 44.2097939 30.3363469 42.41778511 31 40.625 C31.37125 39.62726563 31.7425 38.62953125 32.125 37.6015625 C33.10626277 35.14151939 33.10626277 35.14151939 33 33 C31.68 32.67 30.36 32.34 29 32 Z M26 47 C26.33 49.31 26.66 51.62 27 54 C27.33 54 27.66 54 28 54 C28 52.02 28 50.04 28 48 C27.34 47.67 26.68 47.34 26 47 Z " fill="#009900" transform="translate(76,37)"/>
<path d="M0 0 C0.98226562 0.58007812 0.98226562 0.58007812 1.984375 1.171875 C16.20797396 9.28816593 28.76332883 12.09150241 45 9 C52.0213592 18.26685355 52.0213592 18.26685355 51.97265625 22.21875 C50.81113164 25.1822074 49.35497843 26.79448617 46.625 28.375 C45.75875 28.58125 44.8925 28.7875 44 29 C43.30390625 29.17144531 42.6078125 29.34289062 41.890625 29.51953125 C25.1471513 32.3025681 8.23785184 29.37205399 -6 20 C-8.12384701 18.41744474 -10.04685106 16.79478552 -12 15 C-8.19695186 9.80789528 -4.23841458 4.84390238 0 0 Z " fill="#029801" transform="translate(32,120)"/>
<path d="M0 0 C2.1015625 -0.1875 2.1015625 -0.1875 5.9765625 0.25 C9.10119915 3.37463665 9.9381571 5.21305416 10.1015625 9.625 C8.54989805 14.62480766 5.6750856 18.5514769 1.9765625 22.25 C-2.97858487 23.18976933 -2.97858487 23.18976933 -6.0234375 22.25 C-9.02211276 19.29550411 -11.3046081 16.09551663 -13.0234375 12.25 C-12.8125 10.15234375 -12.8125 10.15234375 -12.0234375 8.25 C-11.77207031 7.62738281 -11.52070312 7.00476563 -11.26171875 6.36328125 C-8.76251336 1.50195768 -8.76251336 1.50195768 -5.2734375 0.3125 C-2.22137497 0.30989784 -2.22137497 0.30989784 0 0 Z " fill="#FAFAFA" transform="translate(91.0234375,117.75)"/>
<path d="M0 0 C0.81998065 2.35481623 1.13384316 3.60158317 0.328125 6 C-0.75813065 8.01508295 -1.85153807 10.01961335 -3 12 C-3.474375 12.825 -3.94875 13.65 -4.4375 14.5 C-6 16 -6 16 -8.6875 16.25 C-9.450625 16.1675 -10.21375 16.085 -11 16 C-10.29545067 10.01133071 -7.28793663 5.92270583 -2.75 2.125 C-1.38875 1.073125 -1.38875 1.073125 0 0 Z " fill="#089A05" transform="translate(35,49)"/>
<path d="M0 0 C2 2 2 2 3 5 C3.66 3.35 4.32 1.7 5 0 C7 1 7 1 9 4 C9.66 2.68 10.32 1.36 11 0 C12.39195915 4.17587745 10.82323219 6.13474776 9 10 C7 9 7 9 6 6 C4.68 7.32 3.36 8.64 2 10 C0.68373308 6.38026598 0 3.90432869 0 0 Z " fill="#75B94A" transform="translate(21,186)"/>
<path d="M0 0 C1.98 0 3.96 0 6 0 C6.625 1.8125 6.625 1.8125 7 4 C6.01 5.485 6.01 5.485 5 7 C4.34 7 3.68 7 3 7 C2.67 7.66 2.34 8.32 2 9 C1.34 9 0.68 9 0 9 C0 6.03 0 3.06 0 0 Z M2 1 C2 2.32 2 3.64 2 5 C2.99 5 3.98 5 5 5 C4.67 3.68 4.34 2.36 4 1 C3.34 1 2.68 1 2 1 Z " fill="#6FB646" transform="translate(101,189)"/>
<path d="M0 0 C1.98 0 3.96 0 6 0 C6.33 1.32 6.66 2.64 7 4 C5.35 4.33 3.7 4.66 2 5 C2 5.99 2 6.98 2 8 C1.34 8 0.68 8 0 8 C0 5.36 0 2.72 0 0 Z M2 1 C2 1.99 2 2.98 2 4 C2.99 4 3.98 4 5 4 C5 3.01 5 2.02 5 1 C4.01 1 3.02 1 2 1 Z " fill="#74BA47" transform="translate(126,187)"/>
<path d="M0 0 C1.98 0 3.96 0 6 0 C7.125 2.3125 7.125 2.3125 8 5 C6 8 6 8 2.875 8.6875 C1.92625 8.790625 0.9775 8.89375 0 9 C0 6.03 0 3.06 0 0 Z M1 1 C1 2.98 1 4.96 1 7 C2.65 6.67 4.3 6.34 6 6 C5.67 4.35 5.34 2.7 5 1 C3.68 1 2.36 1 1 1 Z " fill="#77BD4E" transform="translate(54,187)"/>
<path d="M0 0 C0.33 0 0.66 0 1 0 C1.2236337 1.41433206 1.42826476 2.83167618 1.625 4.25 C1.74101563 5.03890625 1.85703125 5.8278125 1.9765625 6.640625 C2.00319395 9.32152459 1.36592084 10.72694089 0 13 C-1.93443317 10.15524534 -1.99127818 8.89882691 -1.6875 5.375 C-1 2 -1 2 0 0 Z " fill="#70B73E" transform="translate(101,110)"/>
<path d="M0 0 C0.99 0.99 1.98 1.98 3 3 C2.34 3 1.68 3 1 3 C1 4.32 1 5.64 1 7 C1.66 7 2.32 7 3 7 C3 7.66 3 8.32 3 9 C2.01 8.67 1.02 8.34 0 8 C0 6.35 0 4.7 0 3 C-1.65 3.33 -3.3 3.66 -5 4 C-5 5.65 -5 7.3 -5 9 C-5.33 9 -5.66 9 -6 9 C-6 6.69 -6 4.38 -6 2 C-4.02 1.34 -2.04 0.68 0 0 Z " fill="#75BB4E" transform="translate(149,187)"/>
<path d="M0 0 C0.99 1.485 0.99 1.485 2 3 C4.05925139 3.72382467 4.05925139 3.72382467 6 4 C6 5.65 6 7.3 6 9 C4.02 9.33 2.04 9.66 0 10 C0 6.7 0 3.4 0 0 Z M2 4 C2 5.32 2 6.64 2 8 C2.99 7.67 3.98 7.34 5 7 C4.67 6.01 4.34 5.02 4 4 C3.34 4 2.68 4 2 4 Z " fill="#74BB4D" transform="translate(42,186)"/>
<path d="M0 0 C0.99 0 1.98 0 3 0 C2.33333333 3.33333333 1.66666667 6.66666667 1 10 C0.34 10 -0.32 10 -1 10 C-2.25 3.375 -2.25 3.375 0 0 Z " fill="#72AC46" transform="translate(155,186)"/>
<path d="M0 0 C1.65 0.33 3.3 0.66 5 1 C5 2.65 5 4.3 5 6 C3.125 6.625 3.125 6.625 1 7 C0.34 6.34 -0.32 5.68 -1 5 C-0.625 2.375 -0.625 2.375 0 0 Z M1 1 C1 1.66 1 2.32 1 3 C1.99 2.67 2.98 2.34 4 2 C3.01 1.67 2.02 1.34 1 1 Z " fill="#6FBC4A" transform="translate(110,189)"/>
<path d="M0 0 C1.65 0.33 3.3 0.66 5 1 C5 2.65 5 4.3 5 6 C3.125 6.625 3.125 6.625 1 7 C0.34 6.34 -0.32 5.68 -1 5 C-0.625 2.375 -0.625 2.375 0 0 Z M1 1 C1 1.66 1 2.32 1 3 C1.99 2.67 2.98 2.34 4 2 C3.01 1.67 2.02 1.34 1 1 Z " fill="#75BB4E" transform="translate(64,189)"/>
<path d="M0 0 C1.32 0 2.64 0 4 0 C4.33 1.65 4.66 3.3 5 5 C3.02 5.99 3.02 5.99 1 7 C0.01 6.34 -0.98 5.68 -2 5 C-1.125 1.125 -1.125 1.125 0 0 Z M1 1 C0.67 2.32 0.34 3.64 0 5 C0.99 5 1.98 5 3 5 C2.67 3.68 2.34 2.36 2 1 C1.67 1 1.34 1 1 1 Z " fill="#76B552" transform="translate(177,189)"/>
<path d="M0 0 C1.65 0 3.3 0 5 0 C5.33 1.65 5.66 3.3 6 5 C4.02 5.99 4.02 5.99 2 7 C1.01 6.34 0.02 5.68 -1 5 C-0.67 3.35 -0.34 1.7 0 0 Z M2 1 C1.67 2.32 1.34 3.64 1 5 C1.99 5 2.98 5 4 5 C4 3.68 4 2.36 4 1 C3.34 1 2.68 1 2 1 Z " fill="#6EB549" transform="translate(90,189)"/>
<path d="M0 0 C1.67542976 0.28604898 3.34385343 0.61781233 5 1 C4.67 2.65 4.34 4.3 4 6 C3.01 6.33 2.02 6.66 1 7 C0.34 6.67 -0.32 6.34 -1 6 C-1.042721 4.33388095 -1.04063832 2.66617115 -1 1 C-0.67 0.67 -0.34 0.34 0 0 Z M1 1 C0.67 1.66 0.34 2.32 0 3 C0.99 3 1.98 3 3 3 C3 2.34 3 1.68 3 1 C2.34 1 1.68 1 1 1 Z " fill="#70BA48" transform="translate(35,189)"/>
<path d="M0 0 C1.65 0.33 3.3 0.66 5 1 C5 2.65 5 4.3 5 6 C3.125 6.625 3.125 6.625 1 7 C0.34 6.34 -0.32 5.68 -1 5 C-0.625 2.375 -0.625 2.375 0 0 Z M1 1 C0.67 1.99 0.34 2.98 0 4 C1.32 4 2.64 4 4 4 C3.67 3.01 3.34 2.02 3 1 C2.34 1 1.68 1 1 1 Z " fill="#76B255" transform="translate(160,189)"/>
<path d="M0 0 C1.32 0 2.64 0 4 0 C4.625 1.8125 4.625 1.8125 5 4 C4.01 5.485 4.01 5.485 3 7 C1.68 6.67 0.36 6.34 -1 6 C-1.042721 4.33388095 -1.04063832 2.66617115 -1 1 C-0.67 0.67 -0.34 0.34 0 0 Z M1 1 C0.67 1.66 0.34 2.32 0 3 C0.99 3 1.98 3 3 3 C3 2.34 3 1.68 3 1 C2.34 1 1.68 1 1 1 Z " fill="#6EBA49" transform="translate(79,189)"/>
<path d="M0 0 C2 0.25 2 0.25 4 1 C4.33 1.99 4.66 2.98 5 4 C4.01 4.99 3.02 5.98 2 7 C0.68 6.34 -0.64 5.68 -2 5 C-1.125 1.125 -1.125 1.125 0 0 Z M1 1 C0.67 2.32 0.34 3.64 0 5 C0.99 5 1.98 5 3 5 C2.67 3.68 2.34 2.36 2 1 C1.67 1 1.34 1 1 1 Z " fill="#72B347" transform="translate(136,189)"/>
<path d="M0 0 C0.66 0 1.32 0 2 0 C2.66 0.66 3.32 1.32 4 2 C4.33 1.34 4.66 0.68 5 0 C5.66 0.33 6.32 0.66 7 1 C6.01 2.98 5.02 4.96 4 7 C1.49962266 4.82575883 0.56371414 3.26954202 0 0 Z " fill="#72BD4C" transform="translate(70,189)"/>
<path d="M0 0 C0.66 0 1.32 0 2 0 C2 3.3 2 6.6 2 10 C1.34 9.67 0.68 9.34 0 9 C0 6.03 0 3.06 0 0 Z " fill="#6CAC44" transform="translate(167,186)"/>
<path d="M0 0 C1.32 0 2.64 0 4 0 C4 0.66 4 1.32 4 2 C3.34 2 2.68 2 2 2 C2 3.65 2 5.3 2 7 C1.34 7 0.68 7 0 7 C0 4.69 0 2.38 0 0 Z " fill="#73BA4E" transform="translate(117,189)"/>
<path d="M0 0 C0.33 0 0.66 0 1 0 C1 3.3 1 6.6 1 10 C0.67 10 0.34 10 0 10 C0 6.7 0 3.4 0 0 Z " fill="#82D64F" transform="translate(86,186)"/>
<path d="M0 0 C0.33 0 0.66 0 1 0 C1 2.31 1 4.62 1 7 C0.67 7 0.34 7 0 7 C0 4.69 0 2.38 0 0 Z " fill="#7BC34D" transform="translate(172,189)"/>
<path d="M0 0 C0.33 0 0.66 0 1 0 C1 2.31 1 4.62 1 7 C0.67 7 0.34 7 0 7 C0 4.69 0 2.38 0 0 Z " fill="#7BD34A" transform="translate(98,189)"/>
<path d="M0 0 C0.33 0.66 0.66 1.32 1 2 C0.34 1.67 -0.32 1.34 -1 1 C-0.67 0.67 -0.34 0.34 0 0 Z " fill="#71C350" transform="translate(172,186)"/>
<path d="" fill="#6B9B42" transform="translate(0,0)"/>
</svg>
